# xmcd
#
# Track frame offsets:
#	150
#	18940
#	33812
#	46140
#	66940
#	85455
#	98635
#	121392
#	143175
#	159725
#
# Disc length: 2378 seconds
#
# Revision: 1
# Processed by: cddbd v1.5.2PL0 Copyright (c) Steve Scherf et al.
# Submitted via: EasyCDDAExtractor 6.2.0.3
#
DISCID=7c09480a
DTITLE=Jean Lapointe - Ces gens que j'aime
DYEAR=1992
DGENRE=Chanson
TTITLE0=Aimer
TTITLE1=Ma petite soeur des pauvres
TTITLE2=Fanal
TTITLE3=Downtown Sorel
TTITLE4=Le petit ange
TTITLE5=En Brayon voyons
TTITLE6=Les amoureux d'Irlande
TTITLE7=Les vieux
TTITLE8=Le chanteur country
TTITLE9=S'tic qu'l'hiver est long
EXTD=Musicor  -  Les disques Couleurs  -  COCD 113
EXTT0=
EXTT1=
EXTT2=
EXTT3=
EXTT4=
EXTT5=
EXTT6=
EXTT7=
EXTT8=
EXTT9=
PLAYORDER=
